<svg width="53" height="54" viewBox="0 0 53 54" fill="none" xmlns="http://www.w3.org/2000/svg">
<path d="M19 37.6667C21.2677 39.3475 24.0256 40.3334 27 40.3334C29.9744 40.3334 32.7323 39.3475 35 37.6667" fill="#CBE4DE"/>
<path d="M52.6957 29.5544L51.9525 34.7205C50.6525 43.7539 50.0027 48.2704 46.8693 50.9685C43.7357 53.6667 39.1403 53.6667 29.9496 53.6667H24.0504C14.8597 53.6667 10.2642 53.6667 7.13074 50.9685C3.99722 48.2704 3.34733 43.7539 2.04757 34.7205L1.30418 29.5544C0.292345 22.5221 -0.213575 19.0061 1.22765 15.9999C2.66888 12.9936 5.73651 11.1663 11.8718 7.5115L15.5647 5.31166C21.1361 1.99278 23.9219 0.333344 27 0.333344C30.0781 0.333344 32.864 1.99278 38.4352 5.31166L42.1283 7.5115C48.2635 11.1663 51.3312 12.9936 52.7723 15.9999" fill="#CBE4DE"/>
<path d="M19 41.4346C21.2677 43.1154 24.0256 44.1012 27 44.1012C29.9744 44.1012 32.7323 43.1154 35 41.4346" stroke="#2C3333" stroke-width="4" stroke-linecap="round"/>
</svg>
