<svg width="50" height="55" viewBox="0 0 50 55" fill="none" xmlns="http://www.w3.org/2000/svg">
<path d="M49 24.5895V12.243C49 9.06166 49 7.47099 48.5787 6.18809C47.78 3.75537 45.9248 1.84542 43.5616 1.02315C42.3155 0.589528 40.7704 0.589528 37.68 0.589528H12.3201C9.22971 0.589528 7.68456 0.589528 6.43837 1.02315C4.07525 1.84542 2.21995 3.75537 1.4212 6.18809C1 7.47099 1 9.06166 1 12.243V45.9229M49 24.5895V49.5874C49 51.8759 46.3733 53.0903 44.7117 51.5698C43.7355 50.6765 42.2645 50.6765 41.2883 51.5698L40 52.7487C38.2891 54.3143 35.7109 54.3143 34 52.7487C32.2891 51.1831 29.7109 51.1831 28 52.7487C26.2891 54.3143 23.7109 54.3143 22 52.7487C20.2891 51.1831 17.7109 51.1831 16 52.7487C14.2891 54.3143 11.7109 54.3143 10 52.7487L8.71173 51.5698C7.73555 50.6765 6.26445 50.6765 5.28827 51.5698C3.62667 53.0903 1 51.8759 1 49.5874V45.9229" fill="#CBE4DE" stroke="#CBE4DE" stroke-linecap="round"/>
<path d="M21 27.2562H38.3333" stroke="#2C3333" stroke-width="4" stroke-linecap="round"/>
<path d="M11.6667 27.2562H13" stroke="#2C3333" stroke-width="4" stroke-linecap="round"/>
<path d="M11.6667 17.9229H13" stroke="#2C3333" stroke-width="4" stroke-linecap="round"/>
<path d="M11.6667 36.5896H13" stroke="#2C3333" stroke-width="4" stroke-linecap="round"/>
<path d="M38.3333 36.5896H35.6667M21 36.5896H29" stroke="#2C3333" stroke-width="4" stroke-linecap="round"/>
<path d="M38.3333 17.9229H30.3333M21 17.9229H23.6667" stroke="#2C3333" stroke-width="4" stroke-linecap="round"/>
</svg>
