<svg width="58" height="58" viewBox="0 0 58 58" fill="none" xmlns="http://www.w3.org/2000/svg">
<path d="M15.6667 5.90085C19.589 3.63192 24.1429 2.33333 29 2.33333C43.7275 2.33333 55.6667 14.2724 55.6667 29C55.6667 43.7275 43.7275 55.6667 29 55.6667C14.2724 55.6667 2.33334 43.7275 2.33334 29C2.33334 24.1429 2.33334 13.6137 15.6667 5.90085Z" fill="#CBE4DE" stroke="#CBE4DE" stroke-width="4" stroke-linecap="round"/>
<path d="M37 22.3333C37 18.6514 33.4184 15.6667 29 15.6667C24.5816 15.6667 21 18.6514 21 22.3333C21 26.0152 24.5816 29 29 29C33.4184 29 37 31.9848 37 35.6667C37 39.3485 33.4184 42.3333 29 42.3333C24.5816 42.3333 21 39.3485 21 35.6667" stroke="#2C3333" stroke-width="4" stroke-linecap="round"/>
<path d="M29 13V45" stroke="#2C3333" stroke-width="4" stroke-linecap="round"/>
</svg>
