<svg width="57" height="55" viewBox="0 0 57 55" fill="none" xmlns="http://www.w3.org/2000/svg">
<path d="M51.1987 23.3333H44.2587C39.5005 23.3333 35.6432 26.9149 35.6432 31.3333C35.6432 35.7517 39.5005 39.3333 44.2587 39.3333H51.1987C51.4211 39.3333 51.532 39.3333 51.6259 39.3277C53.064 39.24 54.2093 38.1765 54.3037 36.8411C54.3099 36.7539 54.3099 36.6507 54.3099 36.4445V26.2221C54.3099 26.016 54.3099 25.9128 54.3037 25.8256C54.2093 24.4901 53.064 23.4267 51.6259 23.3389C51.532 23.3333 51.4211 23.3333 51.1987 23.3333Z" stroke="#CBE4DE" stroke-width="4"/>
<path d="M52.9067 23.3333C52.6995 18.3405 52.0309 15.2793 49.8757 13.1242C46.7517 10 41.7232 10 31.6667 10H23.6667C13.61 10 8.58174 10 5.45753 13.1242C2.33334 16.2484 2.33334 21.2768 2.33334 31.3333C2.33334 41.3899 2.33334 46.4184 5.45753 49.5424C8.58174 52.6667 13.61 52.6667 23.6667 52.6667H31.6667C41.7232 52.6667 46.7517 52.6667 49.8757 49.5424C52.0309 47.3875 52.6995 44.3261 52.9067 39.3333" fill="#CBE4DE"/>
<path d="M52.9067 23.3333C52.6995 18.3405 52.0309 15.2793 49.8757 13.1242C46.7517 10 41.7232 10 31.6667 10H23.6667C13.61 10 8.58174 10 5.45753 13.1242C2.33334 16.2484 2.33334 21.2768 2.33334 31.3333C2.33334 41.3899 2.33334 46.4184 5.45753 49.5424C8.58174 52.6667 13.61 52.6667 23.6667 52.6667H31.6667C41.7232 52.6667 46.7517 52.6667 49.8757 49.5424C52.0309 47.3875 52.6995 44.3261 52.9067 39.3333" stroke="#CBE4DE" stroke-width="4"/>
<path d="M13 10L22.9613 3.39501C25.7664 1.53499 29.5669 1.53499 32.372 3.39501L42.3333 10" fill="#CBE4DE"/>
<path d="M13 10L22.9613 3.39501C25.7664 1.53499 29.5669 1.53499 32.372 3.39501L42.3333 10" stroke="#CBE4DE" stroke-width="4" stroke-linecap="round"/>
<path d="M44.9765 31.3333H45.0005" stroke="#2C3333" stroke-width="5.33333" stroke-linecap="round" stroke-linejoin="round"/>
<path d="M13 20.6667H23.6667" stroke="#2C3333" stroke-width="4" stroke-linecap="round" stroke-linejoin="round"/>
</svg>
