<svg width="57" height="58" viewBox="0 0 57 58" fill="none" xmlns="http://www.w3.org/2000/svg">
<path d="M37 45H21" stroke="#CBE4DE" stroke-width="4" stroke-linecap="round"/>
<path d="M54.6957 31.5544L53.9525 36.7205C52.6525 45.7539 52.0027 50.2704 48.8693 52.9685C45.7357 55.6667 41.1403 55.6667 31.9496 55.6667H26.0504C16.8597 55.6667 12.2642 55.6667 9.13075 52.9685C5.99723 50.2704 5.34734 45.7539 4.04758 36.7205L3.30419 31.5544C2.29235 24.5221 1.78643 21.0061 3.22766 17.9999C4.66888 14.9936 7.73651 13.1663 13.8718 9.5115L17.5647 7.31166C23.1361 3.99278 25.9219 2.33334 29 2.33334C32.0781 2.33334 34.864 3.99278 40.4352 7.31166L44.1283 9.5115C50.2635 13.1663 53.3312 14.9936 54.7723 17.9999" stroke="#CBE4DE" stroke-width="4" stroke-linecap="round"/>
</svg>
