<svg width="53" height="58" viewBox="0 0 53 58" fill="none" xmlns="http://www.w3.org/2000/svg">
<path d="M50.4352 15.6666V13.9868C50.4352 10.8054 50.4352 9.21477 50.0139 7.93186C49.2152 5.49914 47.36 3.58919 44.9968 2.76693C43.7507 2.3333 42.2056 2.3333 39.1152 2.3333H13.7552C10.6649 2.3333 9.11976 2.3333 7.87357 2.76693C5.51045 3.58919 3.65514 5.49914 2.8564 7.93186C2.4352 9.21477 2.4352 10.8054 2.4352 13.9868V37M50.4352 15.6666V51.3312C50.4352 53.6197 47.8085 54.8341 46.1469 53.3136C45.1707 52.4202 43.6997 52.4202 42.7235 53.3136L41.4352 54.4925C39.7243 56.0581 37.1461 56.0581 35.4352 54.4925C33.7243 52.9269 31.1461 52.9269 29.4352 54.4925C27.7243 56.0581 25.1461 56.0581 23.4352 54.4925C21.7243 52.9269 19.1461 52.9269 17.4352 54.4925C15.7243 56.0581 13.1461 56.0581 11.4352 54.4925L10.1469 53.3136C9.17074 52.4202 7.69965 52.4202 6.72346 53.3136C5.06186 54.8341 2.4352 53.6197 2.4352 51.3312V37" fill="#CBE4DE" stroke="#CBE4DE" stroke-width="4" stroke-linecap="round"/>
<path d="M22.4352 26.3333H39.7685Z" fill="white"/>
<path d="M22.4352 26.3333H39.7685" stroke="#2C3333" stroke-width="4" stroke-linecap="round"/>
<path d="M13.1019 26.3333H14.4352Z" fill="white"/>
<path d="M13.1019 26.3333H14.4352" stroke="#2C3333" stroke-width="4" stroke-linecap="round"/>
<path d="M13.1019 17H14.4352Z" fill="white"/>
<path d="M13.1019 17H14.4352" stroke="#2C3333" stroke-width="4" stroke-linecap="round"/>
<path d="M13.1019 35.6666H14.4352Z" fill="white"/>
<path d="M13.1019 35.6666H14.4352" stroke="#2C3333" stroke-width="4" stroke-linecap="round"/>
<path d="M39.7685 35.6666H37.1019ZM22.4352 35.6666H30.4352Z" fill="white"/>
<path d="M39.7685 35.6666H37.1019M22.4352 35.6666H30.4352" stroke="#2C3333" stroke-width="4" stroke-linecap="round"/>
<path d="M39.7685 17H31.7685ZM22.4352 17H25.1019Z" fill="white"/>
<path d="M39.7685 17H31.7685M22.4352 17H25.1019" stroke="#2C3333" stroke-width="4" stroke-linecap="round"/>
</svg>
