<svg width="52" height="58" viewBox="0 0 52 58" fill="none" xmlns="http://www.w3.org/2000/svg">
<path d="M22 26.3333H39.3333" stroke="#CBE4DE" stroke-width="4" stroke-linecap="round"/>
<path d="M12.6667 26.3333H14" stroke="#CBE4DE" stroke-width="4" stroke-linecap="round"/>
<path d="M12.6667 17H14" stroke="#CBE4DE" stroke-width="4" stroke-linecap="round"/>
<path d="M12.6667 35.6667H14" stroke="#CBE4DE" stroke-width="4" stroke-linecap="round"/>
<path d="M39.3333 35.6667H36.6667M22 35.6667H30" stroke="#CBE4DE" stroke-width="4" stroke-linecap="round"/>
<path d="M39.3333 17H31.3333M22 17H24.6667" stroke="#CBE4DE" stroke-width="4" stroke-linecap="round"/>
<path d="M50 15.6667V13.9868C50 10.8055 50 9.2148 49.5787 7.93189C48.78 5.49917 46.9248 3.58923 44.5616 2.76696C43.3155 2.33333 41.7704 2.33333 38.68 2.33333H13.3201C10.2297 2.33333 8.68456 2.33333 7.43837 2.76696C5.07525 3.58923 3.21995 5.49917 2.4212 7.93189C2 9.2148 2 10.8055 2 13.9868V37M50 26.3333V51.3312C50 53.6197 47.3733 54.8341 45.7117 53.3136C44.7355 52.4203 43.2645 52.4203 42.2883 53.3136L41 54.4925C39.2891 56.0581 36.7109 56.0581 35 54.4925C33.2891 52.9269 30.7109 52.9269 29 54.4925C27.2891 56.0581 24.7109 56.0581 23 54.4925C21.2891 52.9269 18.7109 52.9269 17 54.4925C15.2891 56.0581 12.7109 56.0581 11 54.4925L9.71173 53.3136C8.73555 52.4203 7.26445 52.4203 6.28827 53.3136C4.62667 54.8341 2 53.6197 2 51.3312V47.6667" stroke="#CBE4DE" stroke-width="4" stroke-linecap="round"/>
</svg>
