<svg width="48" height="57" viewBox="0 0 48 57" fill="none" xmlns="http://www.w3.org/2000/svg">
<path fill-rule="evenodd" clip-rule="evenodd" d="M15.6679 46.6958C16.7725 46.6958 17.6679 47.591 17.6679 48.6958C17.6679 49.1576 17.7849 49.6347 18.0382 50.1059C18.2933 50.58 18.688 51.0488 19.2312 51.4672C19.7746 51.8856 20.4453 52.2366 21.2136 52.4816C21.9813 52.7267 22.8162 52.856 23.6669 52.856C24.5173 52.856 25.3522 52.7267 26.12 52.4816C26.8882 52.2366 27.5589 51.8856 28.1024 51.4672C28.6456 51.0488 29.0402 50.58 29.2954 50.1059C29.5488 49.6347 29.6656 49.1576 29.6656 48.6958C29.6656 47.591 30.561 46.6958 31.6656 46.6958C32.7701 46.6958 33.6656 47.591 33.6656 48.6958C33.6656 49.8518 33.3688 50.9766 32.8181 52.0006C32.2693 53.0208 31.4856 53.9104 30.5432 54.6363C29.601 55.3616 28.5082 55.9184 27.3357 56.2926C26.1626 56.6667 24.917 56.856 23.6669 56.856C22.4165 56.856 21.1709 56.6667 19.9978 56.2926C18.8253 55.9184 17.7325 55.3616 16.7904 54.6363C15.8479 53.9104 15.0642 53.0208 14.5154 52.0006C13.9647 50.9766 13.6679 49.8518 13.6679 48.6958C13.6679 47.591 14.5634 46.6958 15.6679 46.6958Z" fill="#CBE4DE"/>
<path fill-rule="evenodd" clip-rule="evenodd" d="M14.1103 3.16651C20.1314 0.170189 27.1869 0.0682691 33.292 2.88939L33.8376 3.14152C40.2349 6.0976 44.3306 12.5022 44.3306 19.5494V23.0445C44.3306 25.8539 44.9429 28.6294 46.1248 31.1779L46.8306 32.7C50.0722 39.6902 45.8506 47.8608 38.2736 49.2614L37.8464 49.3403C28.4728 51.0731 18.8608 51.0731 9.48702 49.3403C1.80798 47.9211 -2.25456 39.4254 1.46134 32.5571L2.0651 31.4411C3.55544 28.6864 4.33587 25.6038 4.33587 22.4718V18.9484C4.33587 12.2594 8.12176 6.14659 14.1103 3.16651ZM31.6141 6.52046C26.6104 4.20822 20.8274 4.29176 15.8923 6.7476C11.2627 9.05147 8.33587 13.7772 8.33587 18.9484V22.4718C8.33587 26.2686 7.38982 30.0054 5.5832 33.3446L4.97947 34.4606C2.55584 38.94 5.20555 44.4814 10.214 45.407C19.1072 47.0507 28.2264 47.0507 37.1194 45.407L37.5466 45.328C42.5541 44.4024 45.3442 39.0024 43.2018 34.3827L42.496 32.8608C41.0696 29.7848 40.3306 26.435 40.3306 23.0445V19.5494C40.3306 14.0618 37.1413 9.07451 32.1597 6.77259L31.6141 6.52046Z" fill="#CBE4DE"/>
<path fill-rule="evenodd" clip-rule="evenodd" d="M15.3304 35.512C15.3304 34.4075 16.2258 33.512 17.3304 33.512H30.6637C31.7682 33.512 32.6637 34.4075 32.6637 35.512C32.6637 36.6166 31.7682 37.512 30.6637 37.512H17.3304C16.2258 37.512 15.3304 36.6166 15.3304 35.512Z" fill="#2C3333"/>
</svg>
