<svg width="58" height="56" viewBox="0 0 58 56" fill="none" xmlns="http://www.w3.org/2000/svg">
<path d="M2.33333 30.3464V25.6531C2.33333 22.8797 4.6 20.5865 7.4 20.5865C12.2267 20.5865 14.2 17.1732 11.7733 12.9865C10.3867 10.5865 11.2133 7.46651 13.64 6.07984L18.2533 3.43984C20.36 2.18651 23.08 2.93317 24.3333 5.03984L24.6267 5.54651C27.0267 9.73317 30.9733 9.73317 33.4 5.54651L33.6933 5.03984C34.9467 2.93317 37.6667 2.18651 39.7733 3.43984L44.3867 6.07984C46.8133 7.46651 47.64 10.5865 46.2533 12.9865C43.8267 17.1732 45.8 20.5865 50.6267 20.5865C53.4 20.5865 55.6933 22.8531 55.6933 25.6531V30.3464C55.6933 33.1197 53.4267 35.4131 50.6267 35.4131C45.8 35.4131 43.8267 38.8264 46.2533 43.0131C47.64 45.4397 46.8133 48.5331 44.3867 49.9197L39.7733 52.5597C37.6667 53.8131 34.9467 53.0664 33.6933 50.9597L33.4 50.4531C31 46.2664 27.0533 46.2664 24.6267 50.4531L24.3333 50.9597C23.08 53.0664 20.36 53.8131 18.2533 52.5597L13.64 49.9197C11.2133 48.5331 10.3867 45.4131 11.7733 43.0131C14.2 38.8264 12.2267 35.4131 7.4 35.4131C4.6 35.4131 2.33333 33.1197 2.33333 30.3464Z" fill="#CBE4DE" stroke="#CBE4DE" stroke-width="4" stroke-miterlimit="10" stroke-linecap="round" stroke-linejoin="round"/>
<path d="M29 36C33.4184 36 37 32.4184 37 28C37 23.5816 33.4184 20 29 20C24.5816 20 21 23.5816 21 28C21 32.4184 24.5816 36 29 36Z" fill="#CBE4DE" stroke="#2C3333" stroke-width="4" stroke-miterlimit="10" stroke-linecap="round" stroke-linejoin="round"/>
</svg>
