<svg width="52" height="58" viewBox="0 0 52 58" fill="none" xmlns="http://www.w3.org/2000/svg">
<path d="M2.27064 45L2 23.6667C2 13.61 2 8.58173 5.12419 5.45752C8.2484 2.33333 13.2767 2.33333 23.3333 2.33333H28.6667C38.7232 2.33333 43.7518 2.33333 46.8758 5.45752C48.6176 7.19936 49.3883 9.53304 49.7294 13M49.7294 13L50 34.3333C50 44.3899 50 49.4184 46.8758 52.5424C43.7518 55.6667 38.7232 55.6667 28.6667 55.6667H23.3333C13.2767 55.6667 8.2484 55.6667 5.12419 52.5424C3.38237 50.8005 2.61165 48.4669 2.27064 45" fill="#CBE4DE" stroke="#CBE4DE" stroke-width="4" stroke-linecap="round"/>
<path d="M15.3333 34.3333H28.6667" stroke="#2C3333" stroke-width="4" stroke-linecap="round"/>
<path d="M15.3333 23.6667H18M36.6667 23.6667H26" stroke="#2C3333" stroke-width="4" stroke-linecap="round"/>
</svg>
